HIERARCHY
ROOT Hips
{
	OFFSET	0.00	0.00	0.00
	CHANNELS 6 Xposition Yposition Zposition Zrotation Xrotation Yrotation
	JOINT LeftUpLeg
	{
		OFFSET	 0.126116	-0.014019	-0.065224
		CHANNELS 3 Zrotation Xrotation Yrotation
		JOINT LeftLeg
		{
			OFFSET	 0.000000	 0.000000	 0.569914
			CHANNELS 3 Zrotation Xrotation Yrotation
			JOINT LeftFoot
			{
				OFFSET	 0.000000	 0.000000	 0.544423
				CHANNELS 3 Zrotation Xrotation Yrotation
				JOINT LeftToeBase
				{
					OFFSET	 0.000000	 0.000000	 0.207117
					CHANNELS 3 Zrotation Xrotation Yrotation
					End Site
					{
						OFFSET	 0.000000	 0.000000	 0.207117
					}
				}
			}
		}
	}
	JOINT RightUpLeg
	{
		OFFSET	-0.124023	-0.008373	-0.065224
		CHANNELS 3 Zrotation Xrotation Yrotation
		JOINT RightLeg
		{
			OFFSET	 0.000000	 0.000000	 0.570047
			CHANNELS 3 Zrotation Xrotation Yrotation
			JOINT RightFoot
			{
				OFFSET	 0.000000	 0.000000	 0.544354
				CHANNELS 3 Zrotation Xrotation Yrotation
				JOINT RightToeBase
				{
					OFFSET	 0.000000	 0.000000	 0.207540
					CHANNELS 3 Zrotation Xrotation Yrotation
					End Site
					{
						OFFSET	 0.000000	 0.000000	 0.207540
					}
				}
			}
		}
	}
	JOINT Spine
	{
		OFFSET	 0.000184	-0.007763	 0.117403
		CHANNELS 3 Zrotation Xrotation Yrotation
		JOINT Spine1
		{
			OFFSET	 0.000000	 0.000000	 0.137269
			CHANNELS 3 Zrotation Xrotation Yrotation
			JOINT Spine2
			{
				OFFSET	 0.000000	 0.000000	 0.156879
				CHANNELS 3 Zrotation Xrotation Yrotation
				JOINT LeftShoulder
				{
					OFFSET	 0.080501	-0.002496	 0.160144
					CHANNELS 3 Zrotation Xrotation Yrotation
					JOINT LeftArm
					{
						OFFSET	 0.000000	 0.000000	 0.164363
						CHANNELS 3 Zrotation Xrotation Yrotation
						JOINT LeftForeArm
						{
							OFFSET	 0.000000	 0.000000	 0.364576
							CHANNELS 3 Zrotation Xrotation Yrotation
							JOINT LeftHand
							{
								OFFSET	 0.000000	 0.000000	 0.360812
								CHANNELS 3 Zrotation Xrotation Yrotation
								JOINT LeftHandIndex1
								{
									OFFSET	 0.000000	 0.000000	 0.086006
									CHANNELS 3 Zrotation Xrotation Yrotation
									JOINT LeftHandIndex2
									{
										OFFSET	 0.000000	 0.000000	 0.047236
										CHANNELS 3 Zrotation Xrotation Yrotation
										JOINT LeftHandIndex3
										{
											OFFSET	-0.004284	-0.000551	 0.038166
											CHANNELS 3 Zrotation Xrotation Yrotation
											End Site
											{
												OFFSET	-0.004284	-0.000551	 0.038166
											}
										}
									}
								}
							}
						}
					}
				}
				JOINT Neck
				{
					OFFSET	 0.000000	 0.000000	 0.176489
					CHANNELS 3 Zrotation Xrotation Yrotation
					JOINT Head
					{
						OFFSET	 0.000000	-0.001747	 0.077940
						CHANNELS 3 Zrotation Xrotation Yrotation
						End Site
						{
							OFFSET	 0.000000	-0.001747	 0.077940
						}
					}
				}
				JOINT RightShoulder
				{
					OFFSET	-0.080363	 0.000306	 0.159706
					CHANNELS 3 Zrotation Xrotation Yrotation
					JOINT RightArm
					{
						OFFSET	 0.000000	 0.000000	 0.164196
						CHANNELS 3 Zrotation Xrotation Yrotation
						JOINT RightForeArm
						{
							OFFSET	 0.000000	 0.000000	 0.365611
							CHANNELS 3 Zrotation Xrotation Yrotation
							JOINT RightHand
							{
								OFFSET	 0.000000	 0.000000	 0.360648
								CHANNELS 3 Zrotation Xrotation Yrotation
								JOINT RightHandIndex1
								{
									OFFSET	 0.000000	 0.000000	 0.069977
									CHANNELS 3 Zrotation Xrotation Yrotation
									JOINT RightHandIndex2
									{
										OFFSET	 0.000000	 0.000000	 0.052305
										CHANNELS 3 Zrotation Xrotation Yrotation
										JOINT RightHandIndex3
										{
											OFFSET	 0.009002	-0.000782	 0.042196
											CHANNELS 3 Zrotation Xrotation Yrotation
											End Site
											{
												OFFSET	 0.009002	-0.000782	 0.042196
											}
										}
									}
								}
							}
						}
					}
				}
			}
		}
	}
}
MOTION
Frames:    8
Frame Time: 0.03333334
-8.970074	-21.841800	-0.332738	-54.309780	 3.514597	 0.207474	 2.600549	-34.930080	 172.759300	-4.692061	-65.400410	-4.730401	 175.563600	 87.979680	-177.941900	-2.348181	 34.710020	-0.141926	 0.634848	-36.404850	-177.488100	 1.157053	-69.035210	 4.237443	-176.580400	 86.332370	 178.477500	 2.406336	 20.201130	-0.169108	 11.153580	 14.297600	 1.101088	 1.062930	 7.269577	-1.908695	 1.735396	 4.355125	 0.048892	-124.152700	 89.401280	-144.281900	 46.261200	 61.074210	-75.495030	 3.778586	-15.152830	-35.747090	 21.428780	-34.092210	 6.792118	-3.812334	 37.924440	-2.927599	-2.450526	 36.184240	 0.754587	-1.378229	 35.397820	-2.634230	 1.854346	 2.183381	-3.018926	 1.215092	 7.547987	 3.741015	 94.298410	 86.030640	 170.938700	-54.022390	 71.103480	 72.895230	-24.169360	-24.840990	 34.214580	-45.256790	-36.352400	-2.338644	 6.437017	 35.671460	-0.771858	 2.830251	 35.756010	-7.813440	-2.350882	 35.473990	 5.254307
-8.964363	-21.843490	-0.313529	-56.052310	 5.820573	-0.409611	 3.515441	-35.595050	 173.567300	-4.218375	-62.515850	-3.447637	 168.068300	 89.215160	-170.049700	-2.363326	 32.584970	-0.092073	 1.690106	-37.909650	-176.945100	-0.790649	-66.488620	 3.044683	-172.697100	 87.916910	 174.256000	 2.407038	 19.370040	-0.185578	 0.969291	 14.670650	 1.306123	 1.228047	 7.134290	-1.733829	 2.013465	 4.051538	 0.062072	-119.044100	 89.311010	-149.411300	 43.299490	 60.807360	-74.327750	 5.276230	-16.956620	-36.191390	 26.610280	-34.343530	 9.838496	-3.812334	 37.924440	-2.927599	-2.450526	 36.184240	 0.754587	-1.378229	 35.397820	-2.634230	 2.177389	 1.898374	-2.863833	 1.457615	 7.248809	 4.609869	 94.490170	 86.085940	 170.653700	-53.776100	 71.996580	 71.948230	-26.284860	-26.157850	 34.490560	-50.710960	-36.882710	-5.623316	 6.437017	 35.671460	-0.771858	 2.830251	 35.756010	-7.813440	-2.350882	 35.473990	 5.254307
-8.962181	-21.845250	-0.300043	-56.893940	 7.354002	-0.675578	 4.322020	-35.860860	 174.027900	-3.825267	-60.229590	-2.403879	 73.688030	 89.832150	-75.237350	-2.369109	 31.662730	-0.071009	 1.772388	-38.313320	-176.595200	-2.272729	-64.202740	 1.634879	-167.180500	 88.822640	 168.181400	 2.407060	 19.332980	-0.186311	-9.680681	 15.097100	 1.327292	 1.158471	 7.312397	-1.661220	 2.111805	 4.001013	 0.066036	-118.135400	 89.318440	-150.457100	 41.319370	 61.032930	-74.734830	 6.579445	-18.266450	-35.871380	 31.131130	-31.234610	 10.473120	-3.812334	 37.924440	-2.927599	-2.450526	 36.184240	 0.754587	-1.378229	 35.397820	-2.634230	 2.238717	 1.929116	-2.707466	 1.621315	 7.100925	 4.589629	 94.674900	 86.150960	 170.406400	-52.671340	 73.105530	 70.058420	-28.261440	-26.588340	 33.905860	-55.381250	-33.948730	-6.610161	 6.437017	 35.671460	-0.771858	 2.830251	 35.756010	-7.813440	-2.350882	 35.473990	 5.254307
-8.962255	-21.845410	-0.290277	-56.554690	 8.449308	-0.694465	 4.461663	-36.303730	 174.153500	-3.150432	-58.640660	-1.644025	 17.569780	 89.475120	-18.740370	-2.368775	 31.718870	-0.072284	 1.091286	-38.536330	-176.581500	-1.984337	-62.482270	 1.326795	-158.730300	 89.288110	 159.622500	 2.406436	 20.100730	-0.171100	-20.379490	 15.216780	 1.260461	 0.830918	 7.430502	-1.908939	 2.034187	 4.053627	 0.062677	-127.229700	 89.503070	-141.568300	 40.864370	 61.202780	-76.296420	 6.672445	-19.023760	-36.033510	 33.355160	-24.943290	 8.204414	-3.812334	 37.924440	-2.927599	-2.450526	 36.184240	 0.754587	-1.378229	 35.397820	-2.634230	 2.021782	 2.031482	-2.865108	 1.709991	 7.101235	 4.298650	 94.457700	 85.969880	 170.511300	-50.057510	 74.704960	 66.356380	-29.336180	-26.342940	 32.975760	-58.858770	-27.756100	-4.721509	 6.437017	 35.671460	-0.771858	 2.830251	 35.756010	-7.813440	-2.350882	 35.473990	 5.254307
-8.966394	-21.847030	-0.283842	-55.906830	 9.079766	-0.656424	 4.290393	-36.292740	 174.090300	-2.465486	-57.687470	-1.145867	 11.567100	 89.194730	-12.457420	-2.373925	 30.832990	-0.052326	 0.754132	-38.249290	-176.852500	-0.724369	-61.485770	 2.182497	-151.264600	 89.457880	 152.651000	 2.403165	 22.423250	-0.124553	-29.437310	 15.091190	 1.272445	 0.531239	 7.389191	-2.134455	 1.922764	 4.005313	 0.060051	-161.454900	 89.700640	-107.488000	 42.348500	 60.901900	-78.456870	 6.348287	-19.395160	-37.005570	 34.041730	-16.318860	 3.569764	-3.812334	 37.924440	-2.927599	-2.450526	 36.184240	 0.754587	-1.378229	 35.397820	-2.634230	 1.779925	 1.958175	-3.052532	 1.751542	 7.091238	 3.748922	 94.140000	 85.721260	 170.720700	-47.303000	 76.061970	 62.396380	-29.402650	-25.617870	 32.093350	-61.007560	-19.209220	-0.403228	 6.437017	 35.671460	-0.771858	 2.830251	 35.756010	-7.813440	-2.350882	 35.473990	 5.254307
-8.973103	-21.849940	-0.279872	-55.246900	 9.412139	-0.788686	 4.087941	-35.994750	 174.241600	-2.149643	-56.909020	-1.010303	 9.154163	 88.989150	-9.976683	-2.374992	 30.642080	-0.048050	 0.901042	-37.813820	-176.891600	 0.276883	-60.886070	 3.155110	-160.588000	 89.244630	 162.558400	 2.398664	 24.416900	-0.083829	-36.401070	 14.728190	 1.591440	 0.332956	 7.220914	-2.202438	 1.840685	 3.843045	 0.060100	 154.629800	 89.698680	-63.682940	 45.202680	 60.187600	-81.291820	 5.365473	-18.864980	-38.054560	 33.961940	-5.511883	-2.899721	-3.812334	 37.924440	-2.927599	-2.450526	 36.184240	 0.754587	-1.378229	 35.397820	-2.634230	 1.603392	 1.866425	-3.314119	 1.777076	 6.886742	 3.433656	 93.854820	 85.515200	 170.970100	-46.150230	 76.829910	 59.930760	-28.433850	-24.287930	 31.199140	-62.226160	-8.482993	 5.851757	 6.437017	 35.671460	-0.771858	 2.830251	 35.756010	-7.813440	-2.350882	 35.473990	 5.254307
-8.981777	-21.854210	-0.277941	-54.171800	 9.516835	-0.667328	 3.763748	-35.606240	 174.184100	-1.629887	-56.321190	-0.794239	 9.896640	 89.129350	-10.602090	-2.374309	 30.764570	-0.050795	 0.541920	-37.106000	-177.100600	 0.890520	-60.393150	 3.438669	-168.705400	 88.828470	 170.890800	 2.399367	 24.147760	-0.089374	-39.940310	 14.315140	 1.513041	 0.121151	 7.191639	-2.240134	 1.733335	 3.828091	 0.056822	 141.953500	 89.676150	-51.163090	 48.243210	 59.400840	-83.971550	 4.478473	-16.651620	-37.082550	 34.587850	 7.043583	-10.502590	-3.812334	 37.924440	-2.927599	-2.450526	 36.184240	 0.754587	-1.378229	 35.397820	-2.634230	 1.435924	 1.800540	-3.485995	 1.737161	 6.929729	 3.413631	 93.859470	 85.532710	 170.990900	-47.250430	 76.840810	 60.053860	-26.999360	-21.968880	 29.528600	-63.662920	 4.011753	 13.379790	 6.437017	 35.671460	-0.771858	 2.830251	 35.756010	-7.813440	-2.350882	 35.473990	 5.254307
-8.987401	-21.857260	-0.277759	-53.489780	 9.516769	-0.545618	 3.611889	-35.267220	 174.079900	-1.165524	-56.107680	-0.516376	 12.631260	 89.362960	-13.166820	-2.375075	 30.625690	-0.047691	 0.093031	-36.594860	-177.213900	 1.226728	-60.150710	 3.415026	-171.295600	 88.620450	 173.493000	 2.399672	 24.024950	-0.091899	-39.197500	 14.046360	 1.486161	 0.056041	 7.240719	-2.276690	 1.659460	 3.893304	 0.053454	 140.057600	 89.675550	-49.326190	 50.123970	 59.124320	-85.536660	 3.364254	-14.391160	-35.237090	 34.820580	 14.346890	-14.604720	-3.812334	 37.924440	-2.927599	-2.450526	 36.184240	 0.754587	-1.378229	 35.397820	-2.634230	 1.333768	 1.762153	-3.500513	 1.688311	 7.090955	 3.199555	 93.866130	 85.563320	 171.030500	-49.135010	 76.405170	 61.700500	-25.309640	-19.940340	 28.021200	-63.908830	 11.302340	 17.536740	 6.437017	 35.671460	-0.771858	 2.830251	 35.756010	-7.813440	-2.350882	 35.473990	 5.254307
